<?xml version="1.0" standalone="no"?>
<!DOCTYPE svg PUBLIC "-//W3C//DTD SVG 1.1//EN" "http://www.w3.org/Graphics/SVG/1.1/DTD/svg11.dtd">
<!--Generator: Xara Designer (www.xara.com), SVG filter version: 6.1.0.16-->
<svg stroke-width="0.501" stroke-linejoin="bevel" fill-rule="evenodd" xmlns:xlink="http://www.w3.org/1999/xlink" xmlns="http://www.w3.org/2000/svg" version="1.1" overflow="visible" width="720pt" height="720pt" viewBox="0 0 720 720">
 <defs>
	</defs>
 <g id="Document" fill="none" stroke="black" font-family="Times New Roman" font-size="16" transform="scale(1 -1)">
  <g id="Spread" transform="translate(0 -720)">
   <g id="Layer 1">
    <path d="M 297.787,272.009 C 300.644,287.103 305.36,301.728 311.623,315.743 C 369.68,276.944 446.435,270.261 512.528,304.928 C 548.705,324.127 576.606,352.936 594.443,386.552 C 606.63,377.262 617.747,366.39 627.421,354.758 C 605.478,318.194 573.538,286.842 533.038,265.667 C 456.204,225.145 367.351,230.578 297.787,272.009 Z M 255.341,303.931 C 260.042,319.571 265.936,334.61 273.386,349.241 C 281.133,340.46 289.268,332.63 298.234,325.428 C 291.567,311.429 286.489,296.564 283.019,281.337 C 273.277,288.11 264.122,295.722 255.341,303.931 Z M 207.749,366.779 C 145.863,484.524 191.319,630.228 309.064,692.113 C 426.808,753.998 572.512,708.543 634.347,590.799 C 662.944,536.516 668.684,476.143 654.896,420.656 C 642.788,432.171 629.622,442.457 615.656,451.555 C 621.08,490.772 614.885,532.419 594.932,570.244 C 544.597,666.262 425.794,703.181 329.827,652.894 C 233.601,602.36 196.682,483.559 247.17,387.536 C 251.678,378.818 256.813,370.687 262.315,362.897 C 254.26,348.338 247.751,333.118 242.436,317.248 C 229.174,331.994 217.341,348.513 207.749,366.779 Z M 601.552,401.55 C 606.126,412.178 609.747,422.992 612.361,434.044 C 625.72,424.967 638.27,414.5 649.569,403.013 C 645.98,391.591 641.339,380.557 635.956,369.958 C 625.624,381.613 614.094,392.298 601.552,401.55 Z" fill="#007f01" stroke-width="0.608" fill-rule="evenodd" stroke="none" marker-start="none" marker-end="none" stroke-miterlimit="79.8403193612775"/>
    <path d="M 112.245,103.492 C -0.196,174.63 -33.748,323.397 37.189,435.845 C 70.108,487.929 119.655,523.072 174.347,538.738 C 170.639,522.456 168.189,505.98 167.308,489.448 C 130.368,474.479 97.698,448.369 74.961,412.241 C 16.848,320.364 44.371,199.158 136.053,141.255 C 227.676,83.15 349.134,110.667 407.038,202.347 C 412.188,210.525 416.792,219.127 420.535,227.708 C 437.264,228.085 453.844,230.04 470.22,233.419 C 464.091,214.538 455.749,196.138 444.549,178.549 C 373.411,66.108 224.694,32.554 112.245,103.492 Z M 427.097,244.448 C 427.146,244.394 427.196,244.392 427.247,244.391 C 427.196,244.392 427.144,244.344 427.042,244.348 C 427.044,244.399 427.044,244.399 427.097,244.448 Z M 345.944,473.332 C 311.205,495.261 272.239,504.929 234.1,503.526 C 236.152,518.801 240.016,533.659 245.28,548.113 C 287.802,547.438 330.989,535.294 369.542,510.851 C 443.038,464.522 482.905,384.875 481.847,303.821 C 467.244,299.013 452.284,295.586 436.933,294.044 C 441.436,363.531 408.826,433.402 345.944,473.332 Z M 226.679,547.699 C 227.085,547.735 227.492,547.773 227.948,547.806 C 227.669,547.057 227.441,546.355 227.214,545.654 C 227.037,546.369 226.857,547.033 226.679,547.699 Z" stroke-width="0.608" fill="#0003ff" fill-rule="evenodd" stroke="none" marker-start="none" marker-end="none" stroke-miterlimit="79.8403193612775"/>
    <path d="M 311.871,67.6 C 327.892,72.409 343.304,78.606 358.158,86.242 C 389.415,61.75 428.539,46.405 471.279,44.709 C 579.672,40.417 671.152,124.697 675.496,233.138 C 679.787,341.532 595.35,432.816 487.109,437.152 C 477.251,437.698 467.563,437.227 458.264,436.386 C 449.39,450.625 439.529,464.088 428.417,476.582 C 447.858,480.715 468.028,482.44 488.816,481.665 C 621.639,476.367 725.152,364.21 719.804,231.388 C 714.5,98.364 602.343,-5.149 469.572,0.198 C 408.07,2.75 353.035,28.022 311.871,67.6 Z M 238.534,250.475 C 241.921,337.322 290.859,411.59 361.685,451.206 C 373.235,441.128 383.522,429.677 392.612,417.253 C 330,386.568 285.853,323.329 282.894,248.774 C 281.212,207.856 292.329,169.378 312.572,136.964 C 298.388,131.129 283.553,126.936 268.42,124.376 C 247.636,161.57 236.589,204.906 238.534,250.475 Z" stroke-width="0.608" fill="#ff0000" fill-rule="evenodd" stroke="none" marker-start="none" marker-end="none" stroke-miterlimit="79.8403193612775"/>
   </g>
  </g>
 </g>
</svg>
